<?xml version="1.0" encoding="UTF-8" standalone="no"?>
<svg
   width="494.46558"
   zoomAndPan="magnify"
   viewBox="0 0 370.84918 228.58602"
   height="304.78137"
   preserveAspectRatio="xMidYMid"
   version="1.2"
   id="svg2077"
   sodipodi:docname="vv-logo_1.svg"
   xmlns:inkscape="http://www.inkscape.org/namespaces/inkscape"
   xmlns:sodipodi="http://sodipodi.sourceforge.net/DTD/sodipodi-0.dtd"
   xmlns="http://www.w3.org/2000/svg"
   xmlns:svg="http://www.w3.org/2000/svg">
  <sodipodi:namedview
     id="namedview2079"
     pagecolor="#505050"
     bordercolor="#eeeeee"
     borderopacity="1"
     inkscape:showpageshadow="0"
     inkscape:pageopacity="0"
     inkscape:pagecheckerboard="0"
     inkscape:deskcolor="#505050"
     showgrid="false" />
  <defs
     id="defs2065" />
  <g
     id="g1486"
     transform="matrix(0.62447677,0,0,0.62447677,-93.405724,-94.558489)">
    <path
       style="fill:#d97706;fill-opacity:1;stroke-width:0.999999"
       d="m 280.33898,306.51745 c 79.35278,-2.31149 198.19496,-2.53251 267.31261,-2.59866 92.70943,-0.0888 171.11131,-0.0555 173.34777,0.95622 28.06964,3.0872 31.9587,50.80271 -0.75867,54.68451 -194.62866,0 -206.6818,0.25966 -441.19147,0.25966 0,-27.09593 1.28976,-20.31598 1.28976,-53.30173 z"
       id="path2228-9"
       sodipodi:nodetypes="ccccccc"
       inkscape:export-filename="logo-arrow.svg"
       inkscape:export-xdpi="96"
       inkscape:export-ydpi="96" />
    <path
       style="fill:#d97706;fill-opacity:1;stroke-width:0.999999"
       d="m 150.38831,329.70092 c 0.65481,-0.52494 70.71557,-40.6797 155.69053,-89.23283 166.32977,-95.03767 159.38893,-91.39481 166.81748,-87.55336 6.18168,3.19668 6.18255,3.20346 6.18255,49.38975 0,26.49246 -17.60391,27.18812 -76.75001,62.55675 -40.28749,22.98471 -117.28591,66.38003 -117.27963,66.99183 0.008,0.61179 77.18614,45.56787 117.68291,68.66785 63.59468,32.35359 76.36271,38.41606 76.34673,69.50063 0,33.95331 -0.8281,43.75431 -1.53279,44.18975 -0.57483,0.35527 -4.58374,5.18264 -9.50453,2.3848 -4.92083,-2.79783 -9.25255,-5.08694 -9.62608,-5.08694 -0.37341,0 -1.38954,-0.62033 -2.25785,-1.37854 -0.86831,-0.75818 -13.27877,-8.11862 -27.57877,-16.35651 -14.29999,-8.2379 -50.52498,-29.14118 -80.5,-46.45168 -29.97499,-17.31054 -55.70722,-32.1126 -57.18275,-32.89349 -1.47552,-0.78089 -15.87552,-9.09536 -32.00001,-18.47656 -16.12448,-9.38121 -47.19458,-27.36771 -69.04467,-39.96998 -21.85009,-12.60231 -39.93581,-23.45635 -40.19055,-24.12015 -0.25474,-0.6638 0.0726,-1.63638 0.72744,-2.16132 z"
       id="path2788-3"
       sodipodi:nodetypes="ssscccccsssssssssss"
       inkscape:export-filename="path2788.svg"
       inkscape:export-xdpi="96"
       inkscape:export-ydpi="96" />
  </g>
</svg>
